<?xml version="1.0" encoding="utf-8"?>
<!-- Generator: Adobe Illustrator 21.1.0, SVG Export Plug-In . SVG Version: 6.00 Build 0)  -->
<svg version="1.1" id="Laag_1" xmlns="http://www.w3.org/2000/svg" xmlns:xlink="http://www.w3.org/1999/xlink" x="0px" y="0px"
	 viewBox="0 0 775.3 254" style="enable-background:new 0 0 775.3 254;" xml:space="preserve">
<style type="text/css">
	.st0{fill:#034EA2;}
	.st1{fill:#0090D6;}
	.st2{fill:url(#SVGID_1_);}
	.st3{fill:url(#SVGID_2_);}
	.st4{fill:url(#SVGID_3_);}
	.st5{fill:url(#SVGID_4_);}
	.st6{fill:url(#SVGID_5_);}
	.st7{fill:url(#SVGID_6_);}
	.st8{fill:url(#SVGID_7_);}
	.st9{fill:url(#SVGID_8_);}
	.st10{fill:url(#SVGID_9_);}
	.st11{fill:url(#SVGID_10_);}
	.st12{fill:#023D86;}
	.st13{fill:url(#SVGID_11_);}
	.st14{fill:#003579;}
	.st15{fill:#5A2E87;}
	.st16{fill:#582B6D;}
	.st17{fill:#70308D;}
</style>
<g>
	<path class="st0" d="M303.3,97.4c-12.1-5.3-26.8-5.7-35.1-5.3c-17,0.7-22.4,2.1-22.4,2.1V176c0,1,0.6,1.9,1.5,2.2
		c0,0,7.7,2.3,21,2.6c17.1,0.4,29.7-1.8,39-8.1c12.5-8.4,18.7-20.3,18.7-37.7C326.1,116.7,318.4,104,303.3,97.4z M280.9,161.7
		c-7.3,0.3-11.7-0.2-13.8-0.8l0-49.4c2.3-0.4,7.5-0.8,14.4-0.6c8.6,0.3,23.2,3.4,23.2,23.1C304.6,154.7,289.8,161.3,280.9,161.7z
		 M371.2,126.3c-0.4-0.1-0.7-0.2-1-0.3c-6-2-11-5.1-11.3-9.3c-0.1-2.3,0.7-4.3,1.9-5.5c1.7-1.8,4.8-2.5,6.7-2.5
		c9.5,0,18.4,4.5,18.4,4.5l5.2-14c0.2-0.6,0.2-1.2-0.1-1.7c-0.3-0.5-0.7-1-1.3-1.2l-0.1,0c-4.6-1.7-12.9-4.3-22.4-4.4
		c-18.5-0.3-29.6,9.1-29.6,24.4c0,18,15.2,23.9,20.2,25.9c0.9,0.4,1.8,0.7,2.8,1.1c3.3,1.3,7,2.8,9.8,4.6c3.1,1.9,3.7,5.4,3.2,7.7
		c-1.4,6.7-8.7,8.1-14.6,7.2c-11.1-1.7-17-4.8-17-4.8l-4.8,14.1c-0.4,1,0.1,2.2,1.1,2.7c0.1,0,10.3,5.2,23.4,5.2
		c15,0,32.4-7.1,32.4-27.3C394.2,134.3,378.2,128.5,371.2,126.3z M506.8,96v80.8c0,0.6-0.2,1.2-0.7,1.6c-0.4,0.4-1,0.6-1.6,0.6
		l-18.9,0c0,0,0.1-33.3,0-39.9c-0.1-4.4,1.3-17.7,1.8-20c0,0,0-0.1,0-0.2c-0.1-0.3-0.4-0.2-0.5-0.2c0,0-0.1,0.1-0.1,0.1l-21.5,34.6
		c-0.1,0.2-0.3,0.4-0.4,0.6c-0.4,0.4-1,0.6-1.6,0.6l-5.3,0h0l-5.3,0c-0.6,0-1.2-0.2-1.6-0.6c-0.2-0.2-0.3-0.4-0.4-0.6l-21.5-34.6
		c0,0-0.1-0.1-0.1-0.1c-0.1-0.1-0.4-0.2-0.5,0.2c0,0.1,0,0.1,0,0.2c0.5,2.3,1.9,15.6,1.8,20c-0.1,6.6,0,39.9,0,39.9l-18.9,0
		c-0.6,0-1.2-0.2-1.6-0.6c-0.4-0.4-0.7-1-0.7-1.6V96c0-1.2,1-2.2,2.3-2.2h22.9c1,0,1.7,0.5,2.2,1.3c0,0,16.2,27.8,18.1,31.1
		c1.2,2.1,3.1,7,3.1,7.3v0v0c0,0,0,0,0,0h0c0,0.1,0.1,0.3,0.3,0.3l0,0c0,0,0,0,0,0c0,0,0,0,0,0l0,0c0.1,0,0.3-0.1,0.3-0.3h0
		c0,0,0,0,0,0v0v0c0-0.3,1.8-5.2,3.1-7.3c1.9-3.3,18.1-31.1,18.1-31.1c0.5-0.8,1.2-1.3,2.2-1.3h22.9C505.8,93.8,506.8,94.8,506.8,96
		z"/>
	<g>
		<path class="st1" d="M252.8,223.8h-6.8v-23.5h6.2c3.5,0,4.7,0.2,6.2,1.1c1.8,1.1,2.6,2.6,2.6,4.6c0,2.5-1.4,4.4-4,5.1
			c3.9,0.9,5,3.6,5,5.9C261.9,221.8,258.7,223.8,252.8,223.8z M255,203.8c-0.5-0.2-1.1-0.3-2.2-0.3h-3v6.4h3.3
			c1.4,0,2.1-0.1,2.9-0.9c0.7-0.7,0.9-1.7,0.9-2.3C256.9,205.3,256.1,204.2,255,203.8z M255.4,213.3c-0.6-0.2-1.1-0.2-2.2-0.2h-3.4
			v7.4h3.5c3,0,4.3-1.7,4.3-3.8C257.6,215.1,256.7,213.7,255.4,213.3z"/>
		<path class="st1" d="M278,223.8l-2-3.6c-1.6-2.9-2.7-4.5-4-5.8c-0.4-0.4-0.8-0.7-1.5-0.7v10.1h-3.8v-23.5h7.2c5.3,0,7.6,3,7.6,6.7
			c0,3.4-2.2,6.4-5.8,6.4c0.8,0.4,2.4,2.7,3.6,4.7l3.5,5.6L278,223.8L278,223.8z M272.6,203.4h-2.1v7.4h2c2,0,3.1-0.3,3.8-1
			c0.6-0.6,1.1-1.6,1.1-2.8C277.4,204.7,276.1,203.4,272.6,203.4z"/>
		<path class="st1" d="M286.4,223.8v-23.5h4v23.5H286.4z"/>
		<path class="st1" d="M305.4,224.1c-3.3,0-5.8-1.1-7.7-3.3c-1.8-2.2-2.6-4.8-2.6-8.5c0-4.8,1.5-8.2,4.4-10.4
			c1.7-1.3,3.5-1.8,5.8-1.8c2.7,0,5,0.8,7,2.5l-2,2.4c-1.6-1.3-3.2-1.8-5-1.8c-4.3,0-5.9,3.8-5.9,9.3c0,3.3,0.6,5.6,1.7,6.9
			c0.9,1.1,2.6,1.8,4.4,1.8c1.2,0,2.2-0.3,3.1-0.7v-6.1h-4l-0.5-3.2h8.5v11.1C310.6,223.4,308.1,224.1,305.4,224.1z"/>
		<path class="st1" d="M330.1,223.8v-10.8h-8v10.8h-3.9v-23.5h3.9v9.4h8v-9.4h3.9v23.5H330.1z"/>
		<path class="st1" d="M353.3,203.5h-5.9v20.2h-3.9v-20.2h-5.9v-3.2h16.2L353.3,203.5z"/>
		<path class="st1" d="M369.6,224.2c-2.7,0-5.4-0.7-7.7-2.1l1.5-3c2.1,1.2,4,1.9,6.3,1.9c2.9,0,4.6-1.4,4.6-3.7
			c0-1.7-1.1-2.8-3.5-3.5l-2.5-0.7c-2.1-0.6-3.7-1.5-4.5-2.8c-0.6-0.9-1-2.1-1-3.4c0-4.1,3.3-6.9,8-6.9c2.7,0,5.4,0.8,7.4,2.2
			l-1.8,2.7c-2.2-1.3-3.7-1.8-5.5-1.8c-2.3,0-3.8,1.3-3.8,3.2c0,1.5,0.8,2.2,3.1,2.9l2.8,0.8c3.4,1,5.8,3.2,5.8,6.7
			C378.8,220.6,375.6,224.2,369.6,224.2z"/>
		<path class="st1" d="M392.5,224.1c-3.1,0-5.6-1.2-7.4-3.4c-1.8-2.1-2.7-5-2.7-8.4c0-2.8,0.5-5.2,1.6-7.1c1.8-3.4,5-5.4,8.6-5.4
			c2.3,0,4.4,0.7,5.8,1.8l-1.8,2.6c-1.3-0.9-2.5-1.3-4-1.3c-2,0-3.7,1-4.7,2.8c-0.8,1.4-1.2,3.4-1.2,6.2c0,2.9,0.3,4.5,0.9,5.8
			c1,2.2,2.9,3.3,5.2,3.3c1.7,0,2.9-0.4,4.2-1.5l1.8,2.5C397,223.4,395,224.1,392.5,224.1z"/>
		<path class="st1" d="M402.6,223.8v-23.5h4v23.5H402.6z"/>
		<path class="st1" d="M412.4,223.8v-23.5h13l-0.5,3.2h-8.6v6.4h7.2v3.2h-7.2v7.3h9.4v3.3L412.4,223.8L412.4,223.8z"/>
		<path class="st1" d="M441.4,223.8l-5.3-11c-1.2-2.6-2.5-5.6-3-7l-0.1,0.1c0.2,2,0.2,4.2,0.2,6.5l0.1,11.4h-3.8v-23.5h4.4l5.7,11.5
			c1.1,2.2,2.1,4.9,2.4,6l0.1-0.1c-0.1-1.2-0.3-4.5-0.3-6.7l-0.1-10.7h3.7v23.5L441.4,223.8L441.4,223.8z"/>
		<path class="st1" d="M460.4,224.1c-3.1,0-5.6-1.2-7.4-3.4c-1.8-2.1-2.7-5-2.7-8.4c0-2.8,0.5-5.2,1.6-7.1c1.8-3.4,5-5.4,8.6-5.4
			c2.3,0,4.4,0.7,5.8,1.8l-1.8,2.6c-1.3-0.9-2.5-1.3-4-1.3c-2,0-3.7,1-4.7,2.8c-0.8,1.4-1.2,3.4-1.2,6.2c0,2.9,0.3,4.5,0.9,5.8
			c1,2.2,3,3.3,5.2,3.3c1.7,0,2.9-0.4,4.2-1.5l1.8,2.5C464.9,223.4,462.9,224.1,460.4,224.1z"/>
		<path class="st1" d="M470.5,223.8v-23.5h13l-0.5,3.2h-8.6v6.4h7.2v3.2h-7.2v7.3h9.4v3.3L470.5,223.8L470.5,223.8z"/>
		<path class="st1" d="M489.8,224.3c-1.5,0-2.7-1.3-2.7-2.8c0-1.5,1.2-2.7,2.6-2.7c1.5,0,2.7,1.2,2.7,2.7
			C492.4,223,491.2,224.3,489.8,224.3z"/>
		<path class="st1" d="M511.9,223.8h-6.8v-23.5h6.2c3.5,0,4.7,0.2,6.2,1.1c1.8,1.1,2.6,2.6,2.6,4.6c0,2.5-1.4,4.4-4,5.1
			c3.9,0.9,5,3.6,5,5.9C521.1,221.8,517.9,223.8,511.9,223.8z M514.1,203.8c-0.5-0.2-1.1-0.3-2.2-0.3h-3v6.4h3.3
			c1.4,0,2.1-0.1,2.9-0.9c0.7-0.7,0.9-1.7,0.9-2.3C516,205.3,515.3,204.2,514.1,203.8z M514.6,213.3c-0.6-0.2-1-0.2-2.2-0.2H509v7.4
			h3.5c3,0,4.3-1.7,4.3-3.8C516.8,215.1,515.9,213.7,514.6,213.3z"/>
		<path class="st1" d="M537.2,223.8l-2-3.6c-1.6-2.9-2.7-4.5-4-5.8c-0.4-0.4-0.8-0.7-1.5-0.7v10.1h-3.8v-23.5h7.2
			c5.3,0,7.6,3,7.6,6.7c0,3.4-2.2,6.4-5.8,6.4c0.8,0.4,2.4,2.7,3.6,4.7l3.5,5.6L537.2,223.8L537.2,223.8z M531.8,203.4h-2.1v7.4h2
			c2,0,3.1-0.3,3.8-1c0.6-0.6,1-1.6,1-2.8C536.6,204.7,535.3,203.4,531.8,203.4z"/>
		<path class="st1" d="M545.6,223.8v-23.5h4v23.5H545.6z"/>
		<path class="st1" d="M564.6,224.1c-3.3,0-5.8-1.1-7.7-3.3c-1.8-2.2-2.6-4.8-2.6-8.5c0-4.8,1.5-8.2,4.4-10.4
			c1.7-1.3,3.5-1.8,5.8-1.8c2.7,0,5.1,0.8,7,2.5l-2,2.4c-1.6-1.3-3.2-1.8-4.9-1.8c-4.3,0-5.9,3.8-5.9,9.3c0,3.3,0.6,5.6,1.7,6.9
			c0.9,1.1,2.6,1.8,4.4,1.8c1.2,0,2.2-0.3,3.1-0.7v-6.1h-4l-0.5-3.2h8.5v11.1C569.8,223.4,567.3,224.1,564.6,224.1z"/>
		<path class="st1" d="M589.3,223.8v-10.8h-8v10.8h-3.9v-23.5h3.9v9.4h8v-9.4h3.9v23.5H589.3z"/>
		<path class="st1" d="M612.5,203.5h-5.9v20.2h-3.9v-20.2h-5.9v-3.2H613L612.5,203.5z"/>
		<path class="st1" d="M615.4,223.8v-23.5h13l-0.5,3.2h-8.6v6.4h7.2v3.2h-7.2v7.3h9.4v3.3L615.4,223.8L615.4,223.8z"/>
		<path class="st1" d="M644,223.8l-2-3.6c-1.6-2.9-2.7-4.5-4-5.8c-0.4-0.4-0.8-0.7-1.5-0.7v10.1h-3.8v-23.5h7.2c5.3,0,7.6,3,7.6,6.7
			c0,3.4-2.2,6.4-5.8,6.4c0.8,0.4,2.4,2.7,3.6,4.7l3.5,5.6L644,223.8L644,223.8z M638.6,203.4h-2.1v7.4h2c2,0,3.1-0.3,3.8-1
			c0.6-0.6,1.1-1.6,1.1-2.8C643.3,204.7,642.1,203.4,638.6,203.4z"/>
		<path class="st1" d="M672,223.8h-12v-23.5h4v20.2h8.7L672,223.8z"/>
		<path class="st1" d="M676.1,223.8v-23.5h4v23.5H676.1z"/>
		<path class="st1" d="M694.3,223.9h-3.6l-7.9-23.6h4.3l4.2,13.3c0.6,1.9,1,3.6,1.2,4.7h0.1c0.3-1.1,0.6-2.5,1.4-4.9l4.3-13.1h4.1
			L694.3,223.9z"/>
		<path class="st1" d="M705.1,223.8v-23.5h4v23.5H705.1z"/>
		<path class="st1" d="M726.7,223.8l-5.3-11c-1.3-2.6-2.5-5.6-3-7l-0.1,0.1c0.2,2,0.2,4.2,0.2,6.5l0.1,11.4h-3.8v-23.5h4.4l5.7,11.5
			c1.1,2.2,2.1,4.9,2.4,6l0.1-0.1c-0.1-1.2-0.3-4.5-0.3-6.7l-0.1-10.7h3.7v23.5L726.7,223.8L726.7,223.8z"/>
		<path class="st1" d="M745.8,224.1c-3.3,0-5.8-1.1-7.7-3.3c-1.8-2.2-2.6-4.8-2.6-8.5c0-4.8,1.5-8.2,4.4-10.4
			c1.7-1.3,3.5-1.8,5.8-1.8c2.7,0,5.1,0.8,7,2.5l-2,2.4c-1.6-1.3-3.2-1.8-5-1.8c-4.3,0-5.9,3.8-5.9,9.3c0,3.3,0.6,5.6,1.7,6.9
			c0.9,1.1,2.6,1.8,4.4,1.8c1.2,0,2.2-0.3,3.1-0.7v-6.1h-4l-0.5-3.2h8.5v11.1C751,223.4,748.4,224.1,745.8,224.1z"/>
		<path class="st1" d="M760.5,224.3c-1.5,0-2.7-1.3-2.7-2.8c0-1.5,1.2-2.7,2.6-2.7c1.5,0,2.7,1.2,2.7,2.7
			C763.2,223,762,224.3,760.5,224.3z"/>
	</g>
	<g>
		
			<linearGradient id="SVGID_1_" gradientUnits="userSpaceOnUse" x1="223.718" y1="225.81" x2="140.2413" y2="72.7697" gradientTransform="matrix(1 0 0 -1 0 253.89)">
			<stop  offset="0" style="stop-color:#FDB515"/>
			<stop  offset="0.12" style="stop-color:#FAA61A"/>
			<stop  offset="0.8418" style="stop-color:#BD3682"/>
		</linearGradient>
		<path class="st2" d="M201.6,16c-27.9,8.4-41.3,21.4-37.1,57.4c3.4,23.7,1.4,43.8-2.1,57.3c-0.8,2.9-1.5,5.2-2.3,7.3
			c-0.2,0.8-0.5,1.6-0.9,2.5c-2.1,4.4-6.8,13.5-9,17c-1.6,2.6-5.7,6.8-10.7,6.8c-4.9,0-15.6-0.4-18.4-0.4c-2.7,0-7.6,0.3-7.6,0.3
			c7.1,7.7,19.6,14.7,36.4,14.8c12.5,0.1,26.7-3.4,40.3-13.2C239.4,130.5,227.2,40.6,201.6,16z"/>
		
			<linearGradient id="SVGID_2_" gradientUnits="userSpaceOnUse" x1="102.8652" y1="9.7918" x2="102.8652" y2="154.3648" gradientTransform="matrix(1 0 0 -1 0 253.89)">
			<stop  offset="0" style="stop-color:#8FC95C"/>
			<stop  offset="0.2704" style="stop-color:#73C056"/>
			<stop  offset="1" style="stop-color:#00834A"/>
		</linearGradient>
		<path class="st3" d="M99.3,102.9c-34.6,10.8-52.5,53.4-37.2,96.1c1.2,3.4,2.7,6.9,4.3,10.3c21.3,43.8,63.7,33.8,63.7,33.8
			s15.3-29-13-51.6c-19.8-15.7-30.1-31.5-20.5-56.1c0.5-1.3,1.1-2.6,1.7-4c0.1-0.2,0.2-0.5,0.3-0.8c3.3-7.2,8.3-14.4,11.3-18.9
			c2.1-3,4.5-4.5,9.9-4.9c5-0.4,16.9-0.2,20.1,0.1c4.6,0.4,6.6,1.1,9,4.7c0.1,0.1,0.1,0.2,0.2,0.3C142.3,99.3,120.4,96.3,99.3,102.9
			z"/>
		
			<linearGradient id="SVGID_3_" gradientUnits="userSpaceOnUse" x1="158.0627" y1="45.7466" x2="84.5364" y2="116.7501" gradientTransform="matrix(1 0 0 -1 0 253.89)">
			<stop  offset="0" style="stop-color:#36BFBE"/>
			<stop  offset="0.2615" style="stop-color:#18BAAB"/>
			<stop  offset="0.8872" style="stop-color:#00A182"/>
		</linearGradient>
		<path class="st4" d="M122.9,164.2c-3.6-0.5-6.6-0.5-8.4-1.2l0,0c-1.6-0.6-3.2-1.7-4.5-3.6c-3-4.4-8.8-14.4-10.9-18.6
			c-2.2-4.5-2-6.5-0.4-10.1c3.3-7.2,8.3-14.4,11.3-18.9c0.1-0.1,0.1-0.2,0.2-0.3c-1.4,1.2-13.2,11.4-21,22.1
			c-14.4,19.8-10.4,47.1,6,64c12,12.4,26,14.9,36.6,14.6c19.6-0.5,37.6-15.9,37.6-15.9C163,177.5,144.7,167.1,122.9,164.2z"/>
		<g>
			<g>
				
					<linearGradient id="SVGID_4_" gradientUnits="userSpaceOnUse" x1="106.3491" y1="142.334" x2="106.3491" y2="41.507" gradientTransform="matrix(1 0 0 -1 0 253.89)">
					<stop  offset="0" style="stop-color:#00542B"/>
					<stop  offset="0.9066" style="stop-color:#00976C"/>
				</linearGradient>
				<path class="st5" d="M131.8,212.4c0.2,0,0.4,0,0.6,0c-2.3-6.9-6.8-14.1-15.2-20.8c-19.8-15.7-30.1-31.5-20.5-56.1
					c0.5-1.3,1.1-2.6,1.7-4c0.1-0.2,0.2-0.5,0.3-0.8c3.3-7.2,8.3-14.4,11.3-18.9c0.1-0.1,0.1-0.2,0.2-0.3
					c-1.4,1.2-13.2,11.4-21,22.1c-14.4,19.8-10.4,47.1,6,64C107.1,210.1,121.1,212.7,131.8,212.4z"/>
			</g>
		</g>
		
			<linearGradient id="SVGID_5_" gradientUnits="userSpaceOnUse" x1="81.1078" y1="246.7734" x2="124.5703" y2="84.5693" gradientTransform="matrix(1 0 0 -1 0 253.89)">
			<stop  offset="5.100000e-03" style="stop-color:#5FCCF5"/>
			<stop  offset="0.5969" style="stop-color:#00C0F3"/>
		</linearGradient>
		<path class="st6" d="M182.4,71.2c-9.7-27-32.4-49.8-61.7-57.7C71.6,0.4,29.8,17.9,7.7,48.2c0,0,16.4,26.3,58.7,24.1
			c27.4-1.5,55.9,1.2,75.9,29.7c2.1,3,4.1,6,6,8.9c0.2,0.3,0.4,0.6,0.7,0.9c2.2,3.4,5.5,8.2,10.4,17.6c1.7,3.1,1.8,7.2-0.2,11.2
			c-2.1,4.4-6.8,13.5-9,17c-1.6,2.5-5.2,6.3-9.9,6.7c0,0,0,0-0.1,0c16.4-0.9,29.9-11.3,38.7-27C189.4,118.7,190.3,93.2,182.4,71.2z"
			/>
		
			<linearGradient id="SVGID_6_" gradientUnits="userSpaceOnUse" x1="79.1683" y1="207.6705" x2="104.7886" y2="62.3705" gradientTransform="matrix(1 0 0 -1 0 253.89)">
			<stop  offset="0.1582" style="stop-color:#009CE0"/>
			<stop  offset="0.6" style="stop-color:#034EA2"/>
			<stop  offset="1" style="stop-color:#01397E"/>
		</linearGradient>
		<path class="st7" d="M163.5,82.2C154.2,65.1,132.4,45,94.8,45c-52.9,0-81.3,39.8-81.3,78.4c0,30.6,16.6,61.1,48.6,75.6
			c-11.6-46.9,9.1-89.1,57.1-92.1c0.2,0,0.4,0,0.6-0.1c5-0.4,16.9-0.2,20.1,0.1c4.6,0.4,6.6,1.1,9,4.7c2.2,3.4,5.5,8.2,10.4,17.6
			c1.7,3.1,1.8,7.2-0.2,11.2c-1.8,3.8-5.7,11.2-8.1,15.4c0.5-0.6,11.7-13.7,15.1-22.2C174.4,113.4,168.4,91.2,163.5,82.2z"/>
		
			<linearGradient id="SVGID_7_" gradientUnits="userSpaceOnUse" x1="163.9658" y1="104.8734" x2="163.9658" y2="186.4526" gradientTransform="matrix(1 0 0 -1 0 253.89)">
			<stop  offset="0" style="stop-color:#45317D"/>
			<stop  offset="1" style="stop-color:#AE8970"/>
		</linearGradient>
		<path class="st8" d="M140.3,164.2c16.4-0.9,29.9-11.3,38.7-27c10.4-18.6,11.4-44,3.4-66c-3.6-10.1-9.1-19.6-16-27.9
			c-2.7,7.8-3.4,17.6-1.9,30.2c3.4,23.7,1.4,43.8-2.1,57.3c-0.8,2.9-1.5,5.2-2.3,7.3c-0.2,0.8-0.5,1.6-0.9,2.5
			c-2.1,4.4-6.8,13.5-9,17C148.6,159.9,145,163.8,140.3,164.2L140.3,164.2z"/>
		
			<linearGradient id="SVGID_8_" gradientUnits="userSpaceOnUse" x1="46.582" y1="204.4892" x2="173.0787" y2="131.4563" gradientTransform="matrix(1 0 0 -1 0 253.89)">
			<stop  offset="0" style="stop-color:#008CD1"/>
			<stop  offset="0.1207" style="stop-color:#0087CD"/>
			<stop  offset="0.3175" style="stop-color:#007BC2"/>
			<stop  offset="0.566" style="stop-color:#0068B3"/>
			<stop  offset="0.8536" style="stop-color:#004E9F"/>
			<stop  offset="1" style="stop-color:#203D95"/>
		</linearGradient>
		<path class="st9" d="M166.2,133.6c8.1-20.3,2.2-42.4-2.7-51.4C154.2,65.1,132.4,45,94.8,45c-25.6,0-45.4,9.3-59.1,23.2
			c8.2,2.8,18.3,4.6,30.6,4c27.4-1.5,55.9,1.2,75.9,29.7c2.1,3,4.1,6,6,8.9h0c0.1,0.1,0.2,0.3,0.3,0.4c0.1,0.2,0.2,0.3,0.3,0.5
			c2.2,3.4,5.5,8.2,10.4,17.6c1.7,3.1,1.8,7.2-0.2,11.2c-1.8,3.8-5.7,11.2-8.1,15.4C151.7,155.3,162.8,142.2,166.2,133.6z"/>
		
			<linearGradient id="SVGID_9_" gradientUnits="userSpaceOnUse" x1="154.5936" y1="43.8994" x2="126.944" y2="90.9523" gradientTransform="matrix(1 0 0 -1 0 253.89)">
			<stop  offset="0" style="stop-color:#D379B1"/>
			<stop  offset="1" style="stop-color:#9A258F"/>
		</linearGradient>
		<path class="st10" d="M197.2,173.2c-6.8-4.5-10.7-14.3-10.3-23.7c0.4-10.2-5.7-8.6-5.7-8.6s-12.6,23.1-41.6,23.4c0,0,0,0,0,0
			c-5.3,0-14.5-0.4-18.3-0.4c-18.5,0.2-36.6,3.7-51.2,22.3c0,0,15.5-0.8,45.8,8.5C172.2,212,200.1,179.3,197.2,173.2z"/>
		
			<linearGradient id="SVGID_10_" gradientUnits="userSpaceOnUse" x1="166.3443" y1="71.9107" x2="149.0911" y2="101.2714" gradientTransform="matrix(1 0 0 -1 0 253.89)">
			<stop  offset="0" style="stop-color:#AF3F89"/>
			<stop  offset="0.8" style="stop-color:#9A2682"/>
		</linearGradient>
		<path class="st11" d="M181.1,140.8c0,0-12.5,22.9-41.2,23.4c-0.2,0-0.3,0-0.5,0c-1.5,0-3.4,0-5.5-0.1c-4.8-0.1-10-0.3-12.7-0.3
			c-1,0-2,0-3,0.1c-1.6,0.1-3.2,0.1-4.1,0.2c-0.2,0-0.4,0-0.6,0.1c7.1,7.7,19.6,14.7,36.4,14.8c12.5,0.1,26.7-3.4,40.3-13.2
			c0.1-0.1,0.2-0.1,0.3-0.2c-2.5-4.7-3.8-10.4-3.6-16.1C187.2,139.2,181.1,140.8,181.1,140.8z"/>
		<path class="st12" d="M99.3,102.9c-34.6,10.8-52.5,53.4-37.2,96.1c-11.6-46.9,9.2-89.1,57.1-92c0.2,0,0.4,0,0.6-0.1
			c5-0.4,16.9-0.2,20.1,0.1c4.6,0.4,6.6,1.1,9,4.7c0.1,0.1,0.1,0.2,0.2,0.3C142.3,99.3,120.4,96.3,99.3,102.9z"/>
		
			<linearGradient id="SVGID_11_" gradientUnits="userSpaceOnUse" x1="66.1887" y1="72.162" x2="149.5292" y2="72.162" gradientTransform="matrix(1 0 0 -1 0 253.89)">
			<stop  offset="0" style="stop-color:#564088"/>
			<stop  offset="1" style="stop-color:#8F53A1"/>
		</linearGradient>
		<path class="st13" d="M169.4,196.4c-6.4-18.9-24.7-29.3-46.5-32.2c-1.4-0.2-2.8-0.3-4-0.4c-17.7,0.5-34.8,4.5-48.9,22.3
			c0,0,15.5-0.8,45.8,8.5C138.2,201.5,156.1,200.5,169.4,196.4z"/>
		<path class="st14" d="M166,87.6c1.1,17.5-0.8,32.4-3.5,43.1c-0.8,2.9-1.5,5.2-2.3,7.3c0,0,0,0,0,0c-0.1,0.4-0.2,0.7-0.4,1.1
			c0,0.1-0.1,0.2-0.1,0.2c-0.1,0.3-0.3,0.6-0.4,1c0,0,0,0.1-0.1,0.1c-1.8,3.8-5.6,11.2-8,15.4c0.6-0.7,11.7-13.7,15.1-22.2
			C173,116.7,170,98.4,166,87.6z"/>
		<path class="st15" d="M122.6,196.5c-1.6-1.7-3.7-3.3-5.8-4.9c-9.7-7.7-16.8-15.4-20.7-24.2c-9.4,3.1-18.5,8.7-26.4,18.7
			c0,0,15.5-0.8,45.8,8.5C117.8,195.3,120.4,195.9,122.6,196.5z"/>
		<g>
			<path class="st16" d="M139.9,164.2c-0.1,0-0.2,0-0.3,0c0,0,0,0,0,0c-1.6,0-3.5-0.1-5.6-0.1c2.1,0.1,4.1,0.1,5.5,0.1
				C139.6,164.2,139.7,164.2,139.9,164.2z"/>
			<path class="st16" d="M113.5,164.1c0.2,0,0.4,0,0.6,0C113.8,164.1,113.5,164.1,113.5,164.1L113.5,164.1z"/>
			<path class="st16" d="M113.5,164.1c0.2,0,0.4,0,0.6,0C113.8,164.1,113.5,164.1,113.5,164.1L113.5,164.1z"/>
			<path class="st16" d="M118.9,163.8C118.9,163.8,118.9,163.8,118.9,163.8c-0.3,0-0.5,0-0.7,0C118.4,163.8,118.7,163.8,118.9,163.8
				z"/>
			<path class="st16" d="M118.9,163.8C118.9,163.8,118.9,163.8,118.9,163.8c-0.3,0-0.5,0-0.7,0C118.4,163.8,118.7,163.8,118.9,163.8
				z"/>
			<path class="st17" d="M118.9,163.8c-0.2,0-0.5,0-0.7,0c-1.4,0-2.7,0.1-4.1,0.2c-0.2,0-0.4,0-0.6,0c7.1,7.7,19.6,14.7,36.4,14.8
				c2.4,0,4.9-0.1,7.5-0.4c-8.8-7.8-21-12.5-34.6-14.3C121.4,164.1,120.1,163.9,118.9,163.8z"/>
		</g>
	</g>
</g>
</svg>
